<svg xmlns="http://www.w3.org/2000/svg" width="87" height="68"><g data-name="Group 484"><g data-name="Group 422" transform="translate(-709 -2839)"><rect data-name="Rectangle 230" width="72" height="60" rx="1" transform="translate(724 2847)" fill="#003da5"/><path data-name="Rectangle 231" fill="#49c5b1" opacity=".609" d="M709 2839h26v26h-26z"/></g><g data-name="Group 368"><path data-name="Path 275" d="M35.502 20.368a3.623 3.623 0 00-3.592 3.592v17.386a3.623 3.623 0 003.592 3.592h32a3.623 3.623 0 003.592-3.592V23.96a3.623 3.623 0 00-3.595-3.592zm2.612 3.1h26.773a3.1 3.1 0 003.1 3.1v12.248a3.1 3.1 0 00-3.1 3.1H38.11a3.1 3.1 0 00-3.1-3.1V26.568a3.21 3.21 0 003.1-3.1zm13.387 2.041a5.755 5.755 0 00-4.734 2.367 8.314 8.314 0 00-1.469 4.734 7.586 7.586 0 001.469 4.734 5.918 5.918 0 009.469 0 8.313 8.313 0 001.469-4.734 7.586 7.586 0 00-1.469-4.734A5.754 5.754 0 0051.5 25.51zm0 3.02a2.411 2.411 0 012.2 1.143 5.017 5.017 0 01.9 2.939 4.839 4.839 0 01-.9 2.939 2.5 2.5 0 01-2.2 1.143 2.411 2.411 0 01-2.2-1.143 5.018 5.018 0 01-.9-2.939 4.839 4.839 0 01.9-2.939 2.411 2.411 0 012.199-1.141zm-12.408 2.039a2.041 2.041 0 102.041 2.041 1.972 1.972 0 00-2.041-2.041zm24.817 0a2.041 2.041 0 102.041 2.041 2.073 2.073 0 00-2.041-2.041zM35.093 46.897a3.587 3.587 0 003.428 3.1 63.454 63.454 0 0124 6.04c.816.327 1.469.653 2.041.9a2.07 2.07 0 00.979.163 2.752 2.752 0 001.388-.408 2.462 2.462 0 001.143-2.122v-7.673h-3.1v4.081a3.032 3.032 0 00-2.694 1.633 64.221 64.221 0 00-23.672-5.714z" fill="#fff"/></g></g></svg>