<svg xmlns="http://www.w3.org/2000/svg" width="87" height="68"><g data-name="Group 485"><g data-name="Group 423" transform="translate(-709 -2839)"><rect data-name="Rectangle 230" width="72" height="60" rx="1" transform="translate(724 2847)" fill="#003da5"/><path data-name="Rectangle 231" fill="#49c5b1" opacity=".609" d="M709 2839h26v26h-26z"/></g><g data-name="Group 367"><path data-name="Path 283" d="M52.001 17.837a24.48 24.48 0 00-10.4 2.293 1.574 1.574 0 00-.9 1.229 1.449 1.449 0 00.655 1.392 1.367 1.367 0 001.474.082 21.572 21.572 0 0118.346 0 1.484 1.484 0 101.229-2.7 24.48 24.48 0 00-10.404-2.296zm-14.743 5.16a1.717 1.717 0 00-.9.328 25.69 25.69 0 00-4.177 4.259 1.588 1.588 0 00-.246 1.474 1.45 1.45 0 001.147.9 1.559 1.559 0 001.392-.573 22.877 22.877 0 013.686-3.768 1.461 1.461 0 00-.9-2.621zm15.643.819a1.4 1.4 0 00-1.392 1.474 1.453 1.453 0 001.392 1.474 16.187 16.187 0 0115.234 15.234 1.477 1.477 0 102.948-.164 19.054 19.054 0 00-18.019-18.019zm-5.815.655a.738.738 0 00-.409.082 19.187 19.187 0 00-13.842 18.346 31.7 31.7 0 00.246 4.1 1.483 1.483 0 102.948-.328 27.039 27.039 0 01-.246-3.768 16.289 16.289 0 0111.713-15.566 1.461 1.461 0 001.065-1.638 1.367 1.367 0 00-1.474-1.228zM52 29.631a13.318 13.318 0 00-13.268 13.268 33.9 33.9 0 001.8 10.32 1.492 1.492 0 002.539.491 1.588 1.588 0 00.246-1.474 31.438 31.438 0 01-1.638-9.337 10.282 10.282 0 0118.674-5.979 1.466 1.466 0 002.375-1.72 13.147 13.147 0 00-10.727-5.569zm0 5.9a7.447 7.447 0 00-7.371 7.371 25.265 25.265 0 004.1 13.6 1.71 1.71 0 001.31.655 1.434 1.434 0 001.229-.819 1.375 1.375 0 00-.164-1.474c-3.358-4.832-3.6-11.3-3.6-11.958a4.423 4.423 0 018.846 0 17.826 17.826 0 00.491 3.44 8.419 8.419 0 002.13 4.259l2.211 2.211a1.421 1.421 0 001.474.409 1.718 1.718 0 001.065-1.065 1.465 1.465 0 00-.41-1.474L61.1 48.475a7.2 7.2 0 01-1.392-2.867 11.7 11.7 0 01-.409-2.785 7.2 7.2 0 00-7.298-7.295zm11.794 4.914a1.468 1.468 0 00-1.474 1.474v.983a6.422 6.422 0 002.375 5.078l-.082-.082 1.065.983a1.468 1.468 0 002.457-.819 1.5 1.5 0 00-.491-1.392l-1.147-.983a3.254 3.254 0 01-1.31-2.785v-.983a1.557 1.557 0 00-.409-1.065.94.94 0 00-.983-.412zM52 41.428a1.468 1.468 0 00-1.474 1.474s-.164 7.289 4.341 11.876l.983.983a1.421 1.421 0 001.474.41 1.718 1.718 0 001.065-1.065 1.465 1.465 0 00-.409-1.474l-.983-.983c-3.358-3.358-3.522-9.746-3.522-9.746a1.557 1.557 0 00-.409-1.065 1.066 1.066 0 00-1.065-.413z" fill="#fff"/></g></g></svg>