<svg version="1.1" id="Layer_1" xmlns="http://www.w3.org/2000/svg" x="0" y="0" viewBox="0 0 293.91 92.02" xml:space="preserve" aria-hidden="true"><style>.st0,.st2{fill:#6e7885}.st2,.st3,.st4{fill-rule:evenodd;clip-rule:evenodd}.st3{fill:#50c0af}.st4{fill:#00509e}</style><path class="st0" d="M118.86 54.84c-1.05 2.28-2.56 4.06-4.54 5.36-1.98 1.29-4.23 1.94-6.75 1.94-3.51 0-6.5-1.15-8.98-3.45-2.48-2.3-3.71-5.2-3.71-8.71 0-3.39 1.24-6.25 3.71-8.58 2.48-2.33 5.43-3.5 8.85-3.5 2.55 0 4.87.63 6.96 1.9s3.59 3.01 4.5 5.23h-3.52c-.82-1.26-1.94-2.26-3.35-3a9.684 9.684 0 00-4.54-1.12c-2.63 0-4.87.85-6.71 2.56-1.84 1.71-2.76 3.86-2.76 6.46s.88 4.78 2.65 6.54c1.77 1.76 3.95 2.65 6.56 2.65 1.78 0 3.32-.38 4.63-1.14 1.3-.76 2.48-1.89 3.52-3.41l3.48.27zm25.83-4.99c0 3.33-1.17 6.21-3.52 8.64-2.35 2.43-5.19 3.64-8.53 3.64-3.34 0-6.2-1.17-8.59-3.5-2.39-2.33-3.59-5.16-3.59-8.49 0-3.39 1.18-6.28 3.54-8.66 2.36-2.39 5.24-3.58 8.64-3.58 3.23 0 6.04 1.19 8.45 3.56 2.4 2.38 3.6 5.18 3.6 8.39zm-21.09.3c0 2.48.88 4.6 2.63 6.35s3.89 2.63 6.41 2.63c2.55 0 4.67-.9 6.37-2.71 1.7-1.81 2.55-3.99 2.55-6.56 0-1.3-.22-2.46-.66-3.49-.44-1.03-1.34-2.2-2.7-3.49-1.36-1.3-3.21-1.95-5.56-1.95-2.55 0-4.69.9-6.43 2.69-1.74 1.78-2.61 3.96-2.61 6.53zm24.29-12.03h2.97v2.89a5.45 5.45 0 012.48-2.31c1.09-.52 2.33-.78 3.71-.78 1.56 0 2.96.3 4.2.89 1.24.59 2.35 1.47 3.31 2.63l.59.89.47-.89c.79-1.1 1.86-1.97 3.2-2.59 1.34-.62 2.72-.93 4.14-.93 1.24 0 2.46.29 3.65.87 1.19.58 2.29 1.38 3.31 2.4s1.68 2.08 1.97 3.18c.3 1.1.45 2.45.45 4.03v13.24h-3.14V48.69c0-1.1-.07-2.04-.21-2.82-.14-.78-.66-1.8-1.55-3.06s-2.44-1.89-4.65-1.89c-2.18 0-3.69.59-4.52 1.76-.83 1.17-1.31 2.18-1.42 3.01-.11.83-.17 1.83-.17 2.99v12.94h-3.14V48.35c0-1.02-.07-1.87-.21-2.55-.14-.68-.65-1.66-1.53-2.95-.88-1.29-2.4-1.93-4.58-1.93-1.05 0-2 .21-2.86.62-.86.41-1.61 1.03-2.23 1.85-.45.68-.75 1.41-.89 2.19s-.21 1.71-.21 2.78v13.28h-3.14V38.12zm40.81 13.03c0 2.14.91 4 2.72 5.59 1.81 1.59 3.82 2.39 6.03 2.39 1.75 0 3.41-.46 4.97-1.37 1.56-.91 2.67-2.14 3.35-3.68h3.27c-.82 2.37-2.28 4.3-4.39 5.81-2.11 1.51-4.41 2.26-6.9 2.26-3.37 0-6.24-1.17-8.62-3.52-2.38-2.34-3.57-5.21-3.57-8.6 0-3.36 1.17-6.22 3.5-8.58 2.33-2.36 5.2-3.54 8.59-3.54 1.81 0 3.52.39 5.14 1.17 1.61.78 2.97 1.84 4.07 3.18s1.85 2.71 2.25 4.1c.4 1.39.59 2.99.59 4.8h-21zm17.86-2.84c-.4-2.07-1.44-3.81-3.12-5.24-1.68-1.43-3.6-2.14-5.75-2.14-2.21 0-4.16.69-5.86 2.08-1.7 1.39-2.74 3.16-3.14 5.31h17.87zm6.85-9.89h2.97v3.35c1.84-2.57 4.24-3.86 7.22-3.86 1.58 0 3.09.33 4.52.98 1.43.65 2.61 1.56 3.54 2.72.93 1.16 1.55 2.33 1.85 3.5.3 1.17.45 2.61.45 4.31v12.22h-3.14V49.41c0-1.53-.11-2.67-.34-3.44-.23-.76-.81-1.8-1.74-3.1-.93-1.3-2.69-1.95-5.26-1.95-1.13 0-2.2.25-3.2.74-1 .5-1.8 1.15-2.4 1.95-.59.81-.96 1.66-1.1 2.57-.14.91-.21 1.98-.21 3.23v12.22h-3.14V38.42zm25.98-.3h3.14v23.51h-3.14zm11.69 3.14h-4.84v-2.84h4.84v-8.15h3.14v8.15h5.39v2.84h-5.39v20.37h-3.14V41.26z"/><circle class="st0" cx="240.96" cy="33.27" r="2.04"/><circle class="st2" cx="76.39" cy="16.53" r="4.05"/><circle class="st2" cx="85.8" cy="84.46" r="5.08"/><path class="st3" d="M41.33 75.03c.01-.14.03-.28.05-.41-2.46.78-5.07 1.22-7.79 1.22-14.25 0-25.79-11.55-25.79-25.79s11.55-25.79 25.79-25.79c2.77 0 5.43.45 7.93 1.25-.35-1.46-.09-3.05.85-4.36.25-.35.54-.65.85-.92-3.04-.98-6.27-1.52-9.63-1.52-17.31 0-31.34 14.03-31.34 31.34 0 17.31 14.03 31.34 31.34 31.34 3.5 0 6.86-.59 10-1.65-1.47-1.04-2.39-2.79-2.26-4.71z"/><circle class="st4" cx="73.71" cy="78.94" r="5.08"/><circle class="st4" cx="57.38" cy="66.05" r="5.08"/><circle class="st4" cx="74.06" cy="49.6" r="5.08"/><circle class="st4" cx="65.31" cy="9.33" r="5.08"/><circle class="st4" cx="57.97" cy="33.51" r="5.08"/><circle class="st3" cx="84.32" cy="6.74" r="5.08"/><circle class="st3" cx="88.58" cy="25.17" r="4.05"/><circle class="st3" cx="62.83" cy="22.06" r="5.08"/><circle class="st3" cx="62.42" cy="44.21" r="5.08"/><circle class="st3" cx="77.83" cy="66.81" r="5.08"/><circle class="st3" cx="60.53" cy="78.25" r="5.08"/><circle class="st3" cx="64.69" cy="87.51" r="3.06"/><circle class="st3" cx="67.63" cy="65.13" r="3.06"/><circle class="st3" cx="62.26" cy="55.63" r="5.08"/><circle class="st3" cx="79.79" cy="38.8" r="5.08"/><circle class="st3" cx="49.79" cy="24.83" r="5.08"/><circle class="st3" cx="49.58" cy="74.43" r="5.08"/><g><path class="st0" d="M284.37 38.42l-13.41 31.32h-3.28l3.63-8.8-8.92-22.52h3.38l7.39 18.43L281 38.42h3.37zm1.89 2.98c0-.26.03-.52.1-.76s.16-.47.29-.68.27-.4.45-.58.37-.32.58-.45.44-.22.68-.29.5-.1.76-.1.52.03.76.1.47.16.68.29c.21.12.4.27.58.45s.32.37.45.58c.12.21.22.44.29.68s.1.5.1.76-.03.51-.1.76-.17.47-.29.68c-.12.21-.27.4-.45.58s-.37.32-.58.45c-.21.12-.44.22-.68.29s-.5.1-.76.1-.52-.03-.76-.1-.47-.16-.68-.29-.4-.27-.58-.45-.32-.37-.45-.58c-.12-.21-.22-.44-.29-.68-.07-.24-.1-.5-.1-.76zm.52 0c0 .34.06.65.18.94s.29.55.5.76.46.39.74.51c.28.12.59.19.92.19s.64-.06.92-.19.54-.29.75-.51.38-.47.5-.76c.12-.29.18-.61.18-.94 0-.22-.03-.44-.08-.65s-.13-.4-.23-.58c-.1-.18-.22-.34-.37-.49-.14-.15-.3-.27-.47-.38-.17-.1-.36-.19-.56-.24-.2-.06-.41-.09-.63-.09-.22 0-.43.03-.63.09s-.39.14-.56.24-.33.23-.47.38c-.14.15-.26.31-.36.49-.1.18-.18.37-.23.58s-.1.43-.1.65zm1.9.47v1.26h-.83v-3.48h1.24c.48 0 .84.09 1.06.26.22.17.34.42.34.74 0 .23-.06.43-.18.6-.12.17-.3.3-.55.38.06.03.11.08.15.13.04.05.08.11.12.18l.7 1.19h-.8c-.12 0-.2-.04-.24-.13l-.56-1.02a.228.228 0 00-.09-.08c-.03-.02-.08-.03-.15-.03h-.21zm0-.59h.34c.13 0 .24-.01.33-.03a.38.38 0 00.2-.1c.05-.04.08-.1.1-.16.02-.06.03-.14.03-.22 0-.08-.01-.15-.02-.21-.02-.06-.04-.11-.09-.15s-.1-.07-.18-.09c-.08-.02-.17-.03-.29-.03h-.41v.99z"/></g></svg>