<svg xmlns="http://www.w3.org/2000/svg" width="87" height="68"><g data-name="Group 482"><g data-name="Group 425" transform="translate(-709 -2839)"><rect data-name="Rectangle 230" width="72" height="60" rx="1" transform="translate(724 2847)" fill="#003da5"/><path data-name="Rectangle 231" fill="#49c5b1" opacity=".609" d="M709 2839h26v26h-26z"/></g><g data-name="Group 366"><path data-name="Path 272" d="M34.105 22a6.083 6.083 0 00-6.06 6.06v16.473a6.083 6.083 0 006.06 6.06h28.508a6.083 6.083 0 006.06-6.06V28.06a6.083 6.083 0 00-6.06-6.06zm0 3.329h28.508a2.7 2.7 0 012.732 2.731v1.622H31.374V28.06a2.7 2.7 0 012.731-2.731zm36.7 2.219v16.985a8.2 8.2 0 01-8.194 8.194H34.703a7.22 7.22 0 005.975 3.329h21.935a11.584 11.584 0 0011.523-11.523v-11.01a7.021 7.021 0 00-3.329-5.975zm-39.431 5.463H65.43v11.522a2.7 2.7 0 01-2.731 2.731H34.105a2.7 2.7 0 01-2.731-2.731zm23.558 7.682a1.76 1.76 0 00-1.451.854 1.99 1.99 0 000 1.707 1.652 1.652 0 001.451.854h5.463a1.76 1.76 0 001.451-.854 1.993 1.993 0 000-1.707 1.652 1.652 0 00-1.451-.854z" fill="#fff"/></g></g></svg>