<svg xmlns="http://www.w3.org/2000/svg" width="87" height="68"><g data-name="Group 483"><g data-name="Group 424" transform="translate(-709 -2839)"><rect data-name="Rectangle 230" width="72" height="60" rx="1" transform="translate(724 2847)" fill="#003da5"/><path data-name="Rectangle 231" fill="#49c5b1" opacity=".609" d="M709 2839h26v26h-26z"/></g><g data-name="Group 365"><path data-name="Path 278" d="M51.166 16.924a1.571 1.571 0 00-.969.373s-6.711 5.89-14.763 5.89a1.337 1.337 0 00-1.343 1.342V35.49c0 5.965 2.759 15.807 16.478 21.548a1.27 1.27 0 001.044 0c13.719-5.741 16.478-15.583 16.478-21.548V24.529a1.337 1.337 0 00-1.342-1.342c-8.053 0-14.763-5.89-14.763-5.89a1.2 1.2 0 00-.82-.373zm-.075 3.057a26.557 26.557 0 0014.316 5.743v9.768c0 5.145-2.013 13.421-14.316 18.864-12.3-5.443-14.316-13.719-14.316-18.864v-9.768a26.557 26.557 0 0014.316-5.743zm6.711 11.259a1.235 1.235 0 00-.895.373l-7.978 7.978-3.5-3.5a1.293 1.293 0 00-1.342-.373 1.564 1.564 0 00-.969.969 1.334 1.334 0 00.373 1.342l4.474 4.474a1.305 1.305 0 001.864 0l8.947-8.947a1.348 1.348 0 00-.969-2.311z" fill="#fff"/></g></g></svg>